# xmcd
#
# Track frame offsets:
#	150
#	18081
#	33600
#	47812
#	63033
#	77639
#	90529
#	106104
#	125684
#	145521
#	162777
#	180298
#	196555
#	214936
#	230349
#	245429
#	259352
#	275595
#	294258
#	313979
#
# Disc length: 4446 seconds
#
# Revision: 3
# Processed by: cddbd v1.4PL0 Copyright (c) Steve Scherf et al.
# Submitted via: audiograbber 1.82.00
#
DISCID=0b115c14
DTITLE=Various Artist - Planet DJ Country #3
DYEAR=1900
DGENRE=Country
TTITLE0=Vince gill  - Look At Us  (Ballad)
TTITLE1=Mindy McCready - Ten Thousand Angels    ((Cha Cha)
TTITLE2=Mindy McCready - Guys Do It All The time  (Line- 2 step)
TTITLE3=John Conley - Rose Collered Glasses  (waltz)
TTITLE4=George Strait - Check Yes Or No  (Cha Cha)
TTITLE5=George Strait - Blue Clear Sky  (double two)
TTITLE6=George Strait - Carried Away  (Ballad)
TTITLE7=Confederate railroadLexy and K-Paul - Trashy Women  (Line - 2 step)
TTITLE8=Mary Chapin-Carpenter - Down At The twist And Shout  (line - 2 step)
TTITLE9=Lorrie Morgan - Back In You Arms Again  (Double two)
TTITLE10=Alabama - Mountain Music  (Party - Fast)
TTITLE11=Sylvia - Madador  (Line)
TTITLE12=Mavericks - All You Ever Do Is Bring Me Down  (east coast)
TTITLE13=Billy Rae Cyrus - Achy Breaky Heart  (Padrty - fast)
TTITLE14=John Michael Montgomery - Dream On Texas Ladies  (Waltz)
TTITLE15=Tracy Lawrence - Alibis  (waltz)
TTITLE16=Charlie Daniels Band - The Devil went down To Georgia  (2 step - polka
TTITLE16=)
TTITLE17=Shania Twain - Any Man Of Mine  (line  2-step)
TTITLE18=Shania Twain - Who's bed Have Your Boots Been Under  (walk The Line)
TTITLE19=Shania TwainTaucher - You May win my love  (double two)
EXTD=
EXTT0=
EXTT1=
EXTT2=
EXTT3=
EXTT4=
EXTT5=
EXTT6=
EXTT7=
EXTT8=
EXTT9=
EXTT10=
EXTT11=
EXTT12=
EXTT13=
EXTT14=
EXTT15=
EXTT16=
EXTT17=
EXTT18=
EXTT19=
PLAYORDER=
